<svg width="134" height="105" viewBox="0 0 134 105" fill="none" xmlns="http://www.w3.org/2000/svg">
<path d="M122.41 74.5708C122.381 74.6285 121.322 75.9046 119.413 75.9046C118.638 75.9046 117.794 75.6852 116.949 75.2521C115.706 74.6285 114.89 73.8201 114.485 72.8211C114.016 71.672 113.918 70.2342 114.23 68.9003C114.421 68.2131 114.67 67.5895 115.046 66.9312L116.446 64.4078C117.47 62.5658 120.217 57.6806 120.998 51.3288C121.027 51.1382 120.906 50.9534 120.721 50.9188C120.564 50.8899 120.345 50.9881 120.281 51.1382L119.876 52.2584C118.875 54.8742 118.314 56.3063 116.88 58.7373C116.041 60.1347 115.104 61.509 114.23 62.8198L112.825 64.8466C112.264 65.6262 111.83 66.4635 111.552 67.3701C110.899 69.2698 110.835 71.3198 111.39 73.1272C111.951 75.0327 113.797 77.0538 115.821 77.995C116.816 78.4858 117.915 78.7688 118.974 78.8612C112.547 87.1821 97.7215 98.1766 82.1206 102.686L81.5248 102.877C79.8994 103.374 76.8741 104.274 74.1322 104.274C71.0433 104.274 69.3253 103.125 68.8915 100.787C68.2667 97.3855 71.6969 95.9245 76.9088 93.6783C79.6506 92.5292 82.7743 91.1837 86.0194 89.2897L86.7078 88.8855C93.2905 85.0167 100.781 80.5992 104.68 71.9434C104.738 71.7817 104.68 71.5623 104.518 71.4699C104.455 71.441 104.391 71.4064 104.327 71.4064C104.2 71.4064 104.108 71.4699 104.044 71.5334C97.9297 78.8842 90.7801 82.5625 84.5444 85.4267C80.6398 87.1994 77.2732 88.1002 74.4966 88.1002C70.8119 88.1002 69.3484 86.5122 69.065 85.5479C67.9717 81.9043 70.8466 80.6281 76.4576 78.4454C78.4243 77.7005 80.6398 76.8574 82.8553 75.7372C89.6289 72.3418 97.8024 65.3028 99.7981 57.9578C99.8675 57.7672 99.7692 57.5767 99.613 57.5189C99.451 57.4265 99.2312 57.49 99.1387 57.646C95.6448 62.6639 88.7786 69.1082 81.3282 72.2263C79.6391 72.9366 76.1742 74.438 73.2761 74.438C70.783 74.438 68.6312 73.2542 68.822 71.1696C69.0708 68.4383 72.9985 66.3422 75.5899 65.1873C76.1279 64.9448 76.5617 64.7543 76.8683 64.5984C84.4865 60.4927 88.9464 55.9714 90.5082 50.7398C90.566 50.5492 90.4735 50.3586 90.3173 50.272C90.1322 50.2027 89.9413 50.272 89.8198 50.4279C85.8864 55.9136 77.1575 61.1684 72.6225 61.2145C71.3094 61.2319 69.8054 60.6256 69.5509 59.6554C68.8683 56.6066 72.0614 54.164 73.9934 52.7897C91.2486 40.7385 94.7424 27.9655 92.2146 20.0199C90.0396 13.1021 79.6854 8.29206 69.7418 11.647C69.4468 11.7452 69.2675 11.4102 69.4815 11.1042C74.086 4.44052 84.7526 0 93.5161 0C110.679 0 126.748 10.9887 131.769 26.1639C136.767 41.2697 133.175 59.8287 122.41 74.5708Z" fill="white"/>
<path d="M11.9139 74.5708C11.9428 74.6285 13.0072 75.9046 14.9103 75.9046C15.6912 75.9046 16.5299 75.6852 17.3745 75.2521C18.6182 74.6285 19.4396 73.8201 19.8445 72.8211C20.3072 71.672 20.4056 70.2342 20.0932 68.9003C19.9023 68.2131 19.6536 67.5895 19.2776 66.9312L17.8777 64.4078C16.8481 62.5658 14.1005 57.6806 13.3195 51.3288C13.2906 51.1382 13.4121 50.9534 13.603 50.9188C13.7592 50.8899 13.979 50.9881 14.0368 51.1382L14.4417 52.2584C15.4425 54.8742 16.0036 56.3063 17.4381 58.7373C18.2827 60.1347 19.2197 61.509 20.0932 62.8198L21.4988 64.8466C22.0599 65.6262 22.4938 66.4635 22.7714 67.3701C23.4309 69.2698 23.4887 71.3198 22.9334 73.1272C22.3665 75.0327 20.527 77.0538 18.4967 77.995C17.5075 78.4858 16.4085 78.7688 15.3499 78.8612C21.7765 87.1821 36.5964 98.1766 52.203 102.686L52.7931 102.877C54.4185 103.374 57.4438 104.274 60.1914 104.274C63.2804 104.274 64.9926 103.125 65.4322 100.787C66.0569 97.3855 62.6267 95.9245 57.4149 93.6783C54.673 92.5292 51.5494 91.1837 48.3043 89.2897L47.6159 88.8855C41.0331 85.0167 33.5422 80.5992 29.6492 71.9434C29.5856 71.7817 29.6492 71.5623 29.8054 71.4699C29.869 71.441 29.9327 71.4064 29.9963 71.4064C30.1236 71.4064 30.2161 71.4699 30.2797 71.5334C36.394 78.8842 43.5378 82.5625 49.7793 85.4267C53.6781 87.1994 57.0504 88.1002 59.827 88.1002C63.5117 88.1002 64.9752 86.5122 65.2529 85.5479C66.3462 81.9043 63.4713 80.6281 57.8603 78.4454C55.8936 77.7005 53.6781 76.8574 51.4626 75.7372C44.689 72.3418 36.5154 65.3028 34.5198 57.9578C34.4562 57.7672 34.5487 57.5767 34.7049 57.5189C34.8669 57.4265 35.0809 57.49 35.1734 57.646C38.6673 62.6639 45.5335 69.1082 52.9897 72.2263C54.673 72.9366 58.1322 74.438 61.036 74.438C63.5291 74.438 65.6867 73.2542 65.5016 71.1696C65.2471 68.4383 61.3194 66.3422 58.728 65.1873C58.2016 64.9448 57.7562 64.7543 57.4496 64.5984C49.8372 60.4927 45.3715 55.9714 43.8155 50.7398C43.7519 50.5492 43.8444 50.3586 44.0064 50.272C44.1857 50.2027 44.3766 50.272 44.4981 50.4279C48.4257 55.9136 57.1546 61.1684 61.6896 61.2145C62.9969 61.2319 64.5125 60.6256 64.7612 59.6554C65.4438 56.6066 62.2507 54.164 60.3187 52.7897C43.0635 40.7385 39.5697 27.9655 42.0975 20.0199C44.2725 13.1021 54.6325 8.29206 64.5703 11.647C64.8653 11.7452 65.0446 11.4102 64.8364 11.1042C60.2377 4.44052 49.5711 0 40.8075 0C23.6449 0 7.57553 10.9887 2.54879 26.1639C-2.43746 41.2697 1.14893 59.8287 11.9081 74.5708H11.9139Z" fill="white"/>
</svg>
